M48
;Layer_Color=9474304
;FILE_FORMAT=2:5
INCH,LZ
;TYPE=PLATED
T2F00S00C0.01968
T5F00S00C0.02756
T8F00S00C0.03937
%
G90
G05
T02
G00X1149213Y0255906
M15
G01X1146063
M16
G00X1149213Y0265748
M15
G01X1146063
M16
G00X1149213Y0285433
M15
G01X1146063
M16
G00X1149213Y0295276
M15
G01X1146063
M16
G00X1149213Y0354331
M15
G01X1146063
M16
G00X1149213Y0364173
M15
G01X1146063
M16
G00X1149213Y0383858
M15
G01X1146063
M16
G00X1149213Y0393701
M15
G01X1146063
M16
G00X1167323Y037559
M15
G01Y0372441
M16
G00X1167323Y0277165
M15
G01Y0274016
M16
G00X0674213Y0596457
M15
G01X0672244
M16
G00X0687992Y0596457
M15
G01X068996
M16
G00X070374Y0596457
M15
G01X0705709
M16
T05
G00X0669291Y0637205
M15
G01Y0634449
M16
G00X0708662Y0634449
M15
G01Y0637205
M16
T08
G00X011752Y0226378
M15
G01X0112795
M16
G00X0121457Y0246063
M15
G01X0116732
M16
G00X005374Y0236221
M15
G01X0058465
M16
M17
M30
