M48
;Layer_Color=9474304
;FILE_FORMAT=2:5
INCH,LZ
;TYPE=PLATED
T1F00S00C0.01181
T3F00S00C0.02362
T4F00S00C0.02559
T6F00S00C0.03346
T7F00S00C0.03937
T9F00S00C0.04331
T10F00S00C0.04921
T11F00S00C0.05118
T12F00S00C0.07087
T14F00S00C0.12598
%
T01
X1093873Y0247416
X0724443Y0178845
X0733643Y0161645
X0739843Y0160645
X0702165Y0154145
X0697443Y0183145
X0703743Y0186345
X0534843Y0234445
X0530943Y0236845
X0486243Y0110545
X0255943Y0252045
X0034488Y0201745
X0009343Y0221345
X0071143Y0310845
X0074743Y0319445
X0098343Y0346545
X0118343Y0333045
X0126683Y0366998
X0181243Y0364045
X0184743Y0391545
X0166443Y0388543
X0164443Y0330145
X0192443Y0296245
X0186143Y0286745
X0190347Y0258945
X0207343Y0301745
X0128243Y0300145
X006373Y0364045
X0244443Y0382045
X0343643Y0375045
X0355344Y0374045
X0371743Y0279745
X0342143Y0273745
X0264243Y0255345
X0424343Y0283045
X0495174Y0278245
X0457343Y0360945
X0530943Y0315545
X0544243Y0312545
X0561405Y0265197
X0648343Y0274845
X0666343
X0664043Y0290545
X0622543Y0330645
X0589343Y0363345
X0618843Y0408945
X0544243Y0397845
X0692643Y0388945
X0739443Y0379445
X075129Y0405945
X0721943Y0352245
X0734843Y0327845
X0740691Y0318798
X0721943Y0307445
X0753549Y0290545
X0762543
X0832743Y0258945
X0875543Y0267445
X0879643Y0318145
X0903443Y0318339
X0911822Y0344683
X0918849Y0349998
X0924243Y0350345
X0927543Y0343945
X0922943Y0341945
X0928743Y0360945
X0915543Y0369045
X0895743Y0408245
X0860443Y0363345
X0845643Y0343245
X0849343Y0336145
X0944743Y0324745
X0953843Y0338845
X0935713Y0297945
X0975643Y0288645
X0991055Y0291645
X0965143Y0277045
X0997843Y0298345
X1008343Y0294245
X1011343Y0391345
X1012443Y0404645
X0998743Y0432407
X1061843Y0456945
X1076443Y0453245
X1018081Y0535107
X0989202Y0517745
X0672453Y0495445
X0636143Y0472445
X0604543Y0465945
X0604743Y0487945
X0588443Y0475845
X0637843Y0428745
X0514543Y0475045
X0464343Y0458145
X0433043Y0458545
X0277643Y0622145
X0600843Y0613545
T03
X0703189Y0240905
X0713189
X0723189
X0733189
X0743189
X0753189
X0763189
X0773189
X0625551
X0615551
X0605551
X0595551
X0585551
X0575551
X0565551
X0555551
X0477914
X0467913
X0457913
X0447914
X0437914
X0427914
X0417913
X0407913
X0330276
X0320276
X0310276
X0300276
X0290276
X0280276
X0270276
X0260276
X0098425Y0190945
Y0173228
X0059055
Y0190945
X0260276Y0270905
X0270276
X0280276
X0290276
X0300276
X0310276
X0320276
X0330276
Y0388543
X0320276
X0310276
X0300276
X0290276
X0280276
X0270276
X0260276
X0464567Y0397638
X0480315
X0477914Y0270905
X0467913
X0457913
X0447914
X0437914
X0427914
X0417913
X0407913
X0555551
X0565551
X0575551
X0585551
X0595551
X0605551
X0615551
X0625551
Y0388543
X0615551
X0605551
X0595551
X0585551
X0575551
X0565551
X0555551
X0700787Y0397638
X0716536
X0713189Y0270905
X0723189
X0733189
X0743189
X0753189
X0763189
X0773189
X0703189
X1082677Y027559
Y0295276
X1082362Y0314961
X1092362Y0333425
X1102362
X1112362
X1122362Y0314961
X1122047Y0295276
Y027559
X1112362Y0363425
X1102362
X1092362
X1082677Y0374016
Y0393701
X1122047
Y0374016
Y0413386
X1082677
X0716536Y0437008
X0700787
X0625551Y0418543
X0615551
X0605551
X0595551
X0585551
X0575551
X0565551
X0555551
X0570866Y0472441
X0610236
X0480315Y0437008
X0464567
X0330276Y0418543
X0320276
X0310276
X0300276
X0290276
X0280276
X0270276
X0260276
T04
X1001055Y0229803
X1017055
X1027055
X1037055
X1047055
X1057055
X1067055
X1077055
X1087055
X1097055
X1107055
X0991055
X0981055
X0971055
X0961055
X0951055
X0941055
X0931055
X0054488Y0294803
X0044488
X0034488
X0024488
X0014488
Y0354803
X0024488
X0034488
X0044488
X0054488
X0064488
X0074488
X0084488
X0094488
X0104488
X0114488
X0124488
X0134488
X0144488
X0154488
X0164488
X0174488
Y0294803
X0164488
X0154488
X0144488
X0134488
X0124488
X0114488
X0104488
X0094488
X0084488
X0074488
X0064488
X1001055Y0419803
X1011055
X1021055
X1031055
X1041055
X1051055
X1061055
X1071055
X0981055
X0971055
X0961055
X0951055
X0941055
X0931055
X0524567Y0639764
X0514567
X0504567
X0494567
X0484567
X0474567
X0464567
X0534567
X0544567
X0554567
X0564567
X0574567
X0584567
X0594567
X0604567
X0614567
T06
X0931055Y0261536
Y0271535
X0941055
X0951055
X0961055
X0971055
Y0261536
X0961055
X0951055
X0941055
X0981055
Y0271535
X0991055
Y0261536
X0930504Y031
Y032
Y033
X0920504
Y032
Y031
X0931055Y0378071
X0941055
Y0388071
X0931055
X0951055
Y0378071
X0961055
X0971055
X0981055
Y0388071
X0971055
X0961055
X1001055Y0271535
Y0261536
X1017055
Y0271535
X1027055
X1037055
X1047055
X1057055
Y0261536
X1047055
X1037055
X1027055
X1067055
Y0271535
T07
X0031693Y0065945
X0049409
Y0091536
X0031693
X0068898Y004626
X007874
X0088583
X0111221Y0068898
Y007874
Y0088583
X1008858Y0440945
X1018701
X1028543
X1038386
X1107283
X1117126
X1126968
X1136811
Y0547244
X1126968
X1117126
X1107283
X1038386
X1028543
X1018701
X1008858
X0939961
X0930118
X0920276
X0910433
X0841535
Y0440945
X0910433
X0920276
X0930118
X0939961
X0831693
X082185
X0812008
Y0547244
X082185
X0831693
T09
X1147638Y027559
Y0374016
X1167323Y0354331
X1177165
Y0393701
X1167323
Y0295276
X1177165
Y0255906
X1167323
T10
X0057874Y0054134
X0099606
Y0103347
X0057874
T11
X0175197Y0014764
X0194882
Y0063977
X0175197
X0242126
X0261811
X0309055
X032874
Y0014764
X0309055
X0261811
X0242126
X0375984
X0395669
X0442913
X0462599
X0509842
Y0063977
X0462599
X0442913
X0395669
X0375984
X0529528
X0576772
X0596457
X0643701
X0663386
Y0014764
X0643701
X0596457
X0576772
X0529528
X071063
X0730315
X0777559
X0797244
Y0063977
X0777559
X0730315
X071063
X0844488
X0864173
X0911417
X0931102
X0978347
Y0014764
X0931102
X0911417
X0864173
X0844488
X0998032
X1045276
X1064961
X1112205
X113189
Y0063977
X1112205
X1064961
X1045276
X0998032
X1015748Y0121063
X1035433
Y0170276
X1015748
X0964567
X0944882
Y0121063
X0964567
X0893701
X0874016
Y0170276
X0893701
X0767717
X0748032
Y0121063
X0767717
X0692913
Y0170276
X0673228
Y0121063
X0566929
X0547244
Y0170276
X0566929
X0496063
X0476378
Y0121063
X0496063
X0425197
X0405512
Y0170276
X0425197
X0299213
X0279527
Y0121063
X0299213
X022441
Y0170276
X0204725
Y0121063
X0423228Y0392717
X0442913
X0501968
X0521654
X0659449
X0679134
X0738189
X0757874
Y0441929
X0738189
X0679134
X0659449
X0521654
X0501968
X0442913
X0423228
X0364173Y0459646
X0344488
Y0508858
X0364173
X0265748
X0246063
Y0459646
X0265748
X0167323
X0147638
Y0508858
X0167323
X0068898
Y0459646
X0049213
Y0508858
Y0565945
Y0615158
X0068898
Y0565945
X0147638
X0167323
Y0615158
X0147638
X0246063
X0265748
Y0565945
X0246063
X0344488
X0364173
Y0615158
X0344488
T12
X0167323Y003937
X0202756
X0234252
X0269685
X0301181
X0336614
X036811
X0403543
X0435039
X0470472
X0501968
X0537402
X0568898
X0604331
X0635827
X067126
X0702756
X0738189
X0769685
X0805118
X0836614
X0872047
X0903543
X0938976
X0970473
X1005906
X1037402
X1072835
X1104331
X1139764
X1043307Y0145669
X1007874
X0972441
X0937008
X0901575
X0866142
X0775591
X0740158
X0700787
X0665354
X0574803
X053937
X0503937
X0468504
X0433071
X0397638
X0307087
X0271654
X0232283
X019685
X0687008Y0417323
X0730315
X0765748
X0651575
X0529528
X0494095
X0450787
X0415354
X0372047Y0484252
X0336614
X0273622
X0238189
X0175197
X0139764
X0076772
X0041339
Y0590551
X0076772
X0139764
X0175197
X0238189
X0273622
X0336614
X0372047
T14
X0015748Y0015748
X1165355
X0433071Y0324803
X0748032
X0738976Y0516929
X0442126
X0015748Y0633858
X1165355
M30
