%FSLAX25Y25*%
%MOIN*%
G70*
G01*
G75*
G04 Layer_Color=8388736*
%ADD10C,0.01181*%
%ADD11O,0.05906X0.07874*%
%ADD12O,0.07874X0.05906*%
%ADD13O,0.19685X0.09843*%
%ADD14C,0.11024*%
%ADD15C,0.07874*%
%ADD16C,0.10236*%
%ADD17C,0.09843*%
%ADD18C,0.16535*%
%ADD19C,0.02362*%
%ADD20C,0.00787*%
%ADD21C,0.01000*%
%ADD22C,0.00394*%
%ADD23R,0.11811X0.27559*%
%ADD24R,0.62992X0.02173*%
%ADD25R,0.62992X0.02169*%
%ADD26R,0.04342X0.02173*%
%ADD27R,0.04343X0.02173*%
%ADD28R,0.13032X0.02173*%
%ADD29R,0.02169X0.02173*%
%ADD30R,0.04342X0.02173*%
%ADD31R,0.10862X0.02173*%
%ADD32R,0.02169X0.02173*%
%ADD33R,0.02173X0.02173*%
%ADD34R,0.04346X0.02173*%
%ADD35R,0.02173X0.02173*%
%ADD36R,0.04342X0.02169*%
%ADD37R,0.02173X0.02169*%
%ADD38R,0.02169X0.02169*%
%ADD39R,0.06516X0.02169*%
%ADD40R,0.02173X0.02169*%
%ADD41R,0.06516X0.02173*%
%ADD42R,0.10858X0.02173*%
%ADD43R,0.02173X0.02173*%
%ADD44R,0.04346X0.02173*%
%ADD45R,0.02169X0.02173*%
%ADD46R,0.30409X0.02169*%
%ADD47R,0.26067X0.02169*%
%ADD48R,0.13035X0.02173*%
%ADD49R,0.06516X0.02173*%
%ADD50R,0.04342X0.02169*%
%ADD51R,0.02173X0.02169*%
%ADD52R,0.02173X0.02169*%
%ADD53R,0.02169X0.02169*%
%ADD54R,0.06520X0.02173*%
%ADD55R,0.10862X0.02173*%
%ADD56R,0.04347X0.02173*%
%ADD57R,0.04347X0.02169*%
%ADD58R,0.04346X0.02169*%
%ADD59R,0.08689X0.02173*%
%ADD60R,0.21720X0.02169*%
%ADD61R,0.10858X0.02169*%
%ADD62R,0.06516X0.02169*%
%ADD63R,0.08689X0.02169*%
%ADD64R,0.06516X0.02173*%
%ADD65R,0.02169X0.02173*%
%ADD66R,0.02173X0.02173*%
%ADD67R,0.02169X0.02169*%
%ADD68R,0.04343X0.02173*%
%ADD69R,0.08689X0.02173*%
%ADD70O,0.06706X0.08674*%
%ADD71O,0.08674X0.06706*%
%ADD72C,0.00800*%
%ADD73O,0.20485X0.10642*%
%ADD74C,0.11824*%
%ADD75C,0.08674*%
%ADD76C,0.11036*%
%ADD77C,0.10642*%
%ADD78C,0.17335*%
%ADD79C,0.03162*%
D70*
X1167323Y275590D02*
D03*
Y374016D02*
D03*
D71*
X1147638Y265748D02*
D03*
Y285433D02*
D03*
Y255906D02*
D03*
Y295276D02*
D03*
Y393701D02*
D03*
Y354331D02*
D03*
Y383858D02*
D03*
Y364173D02*
D03*
D72*
Y275590D02*
D03*
X1167323Y295276D02*
D03*
X1177165D02*
D03*
Y255906D02*
D03*
X1167323D02*
D03*
Y354331D02*
D03*
X1177165D02*
D03*
Y393701D02*
D03*
X1167323D02*
D03*
X1147638Y374016D02*
D03*
X901575Y145669D02*
D03*
X866142D02*
D03*
X1007874D02*
D03*
X1043307D02*
D03*
X972441D02*
D03*
X937008D02*
D03*
X665354D02*
D03*
X700787D02*
D03*
X775591D02*
D03*
X740158D02*
D03*
X397638D02*
D03*
X433071D02*
D03*
X503937D02*
D03*
X468504D02*
D03*
X539370D02*
D03*
X574803D02*
D03*
X232283D02*
D03*
X196850D02*
D03*
X271654D02*
D03*
X307087D02*
D03*
X15748Y15748D02*
D03*
Y633858D02*
D03*
X1165355D02*
D03*
Y15748D02*
D03*
X748032Y324803D02*
D03*
X433071D02*
D03*
X273622Y484252D02*
D03*
X238189D02*
D03*
X139764D02*
D03*
X175197D02*
D03*
X76772D02*
D03*
X41339D02*
D03*
X238189Y590551D02*
D03*
X273622D02*
D03*
X175197D02*
D03*
X139764D02*
D03*
X41339D02*
D03*
X76772D02*
D03*
X372047Y484252D02*
D03*
X336614D02*
D03*
Y590551D02*
D03*
X372047D02*
D03*
X765748Y417323D02*
D03*
X730315D02*
D03*
X651575D02*
D03*
X687008D02*
D03*
X529528D02*
D03*
X494095D02*
D03*
X415354D02*
D03*
X450787D02*
D03*
X1072835Y39370D02*
D03*
X1037402D02*
D03*
X970473D02*
D03*
X1005906D02*
D03*
X938976D02*
D03*
X903543D02*
D03*
X836614D02*
D03*
X872047D02*
D03*
X805118D02*
D03*
X769685D02*
D03*
X702756D02*
D03*
X738189D02*
D03*
X671260D02*
D03*
X635827D02*
D03*
X568898D02*
D03*
X604331D02*
D03*
X537402D02*
D03*
X501968D02*
D03*
X435039D02*
D03*
X470472D02*
D03*
X403543D02*
D03*
X368110D02*
D03*
X301181D02*
D03*
X336614D02*
D03*
X269685D02*
D03*
X234252D02*
D03*
X167323D02*
D03*
X202756D02*
D03*
X1139764D02*
D03*
X1104331D02*
D03*
X442126Y516929D02*
D03*
X738976D02*
D03*
D73*
X119095Y246063D02*
D03*
X115157Y226378D02*
D03*
X56103Y236221D02*
D03*
D74*
X708662Y635827D02*
D03*
X669291D02*
D03*
D75*
X673228Y596457D02*
D03*
X704725D02*
D03*
X688976D02*
D03*
X260276Y388543D02*
D03*
X270276D02*
D03*
X280276D02*
D03*
X290276D02*
D03*
X300276D02*
D03*
X310276D02*
D03*
X320276D02*
D03*
X330276D02*
D03*
X260276Y418543D02*
D03*
X270276D02*
D03*
X280276D02*
D03*
X290276D02*
D03*
X300276D02*
D03*
X310276D02*
D03*
X320276D02*
D03*
X330276D02*
D03*
X773189Y270905D02*
D03*
X763189D02*
D03*
X753189D02*
D03*
X743189D02*
D03*
X733189D02*
D03*
X723189D02*
D03*
X713189D02*
D03*
X703189D02*
D03*
X773189Y240905D02*
D03*
X763189D02*
D03*
X753189D02*
D03*
X743189D02*
D03*
X733189D02*
D03*
X723189D02*
D03*
X713189D02*
D03*
X703189D02*
D03*
X555551D02*
D03*
X565551D02*
D03*
X575551D02*
D03*
X585551D02*
D03*
X595551D02*
D03*
X605551D02*
D03*
X615551D02*
D03*
X625551D02*
D03*
X555551Y270905D02*
D03*
X565551D02*
D03*
X575551D02*
D03*
X585551D02*
D03*
X595551D02*
D03*
X605551D02*
D03*
X615551D02*
D03*
X625551D02*
D03*
X477914D02*
D03*
X467913D02*
D03*
X457913D02*
D03*
X447914D02*
D03*
X437914D02*
D03*
X427914D02*
D03*
X417913D02*
D03*
X407913D02*
D03*
X477914Y240905D02*
D03*
X467913D02*
D03*
X457913D02*
D03*
X447914D02*
D03*
X437914D02*
D03*
X427914D02*
D03*
X417913D02*
D03*
X407913D02*
D03*
X260276D02*
D03*
X270276D02*
D03*
X280276D02*
D03*
X290276D02*
D03*
X300276D02*
D03*
X310276D02*
D03*
X320276D02*
D03*
X330276D02*
D03*
X260276Y270905D02*
D03*
X270276D02*
D03*
X280276D02*
D03*
X290276D02*
D03*
X300276D02*
D03*
X310276D02*
D03*
X320276D02*
D03*
X330276D02*
D03*
X625551Y418543D02*
D03*
X615551D02*
D03*
X605551D02*
D03*
X595551D02*
D03*
X585551D02*
D03*
X575551D02*
D03*
X565551D02*
D03*
X555551D02*
D03*
X625551Y388543D02*
D03*
X615551D02*
D03*
X605551D02*
D03*
X595551D02*
D03*
X585551D02*
D03*
X575551D02*
D03*
X565551D02*
D03*
X555551D02*
D03*
X1122047Y413386D02*
D03*
X1082677D02*
D03*
X610236Y472441D02*
D03*
X570866D02*
D03*
X59055Y190945D02*
D03*
X98425D02*
D03*
X1122047Y275590D02*
D03*
X1082677D02*
D03*
X716536Y397638D02*
D03*
Y437008D02*
D03*
X700787D02*
D03*
Y397638D02*
D03*
X480315D02*
D03*
Y437008D02*
D03*
X464567D02*
D03*
Y397638D02*
D03*
X1122047Y374016D02*
D03*
X1082677D02*
D03*
Y295276D02*
D03*
X1122047D02*
D03*
X98425Y173228D02*
D03*
X59055D02*
D03*
X1082677Y393701D02*
D03*
X1122047D02*
D03*
X1082362Y314961D02*
D03*
X1122362D02*
D03*
X31693Y91536D02*
D03*
Y65945D02*
D03*
X49409D02*
D03*
Y91536D02*
D03*
X78740Y46260D02*
D03*
X88583D02*
D03*
X68898D02*
D03*
X111221Y88583D02*
D03*
Y68898D02*
D03*
Y78740D02*
D03*
X1126968Y440945D02*
D03*
X1136811D02*
D03*
X1107283D02*
D03*
X1117126D02*
D03*
X1018701D02*
D03*
X1008858D02*
D03*
X1038386D02*
D03*
X1028543D02*
D03*
X930118D02*
D03*
X939961D02*
D03*
X910433D02*
D03*
X920276D02*
D03*
X821850D02*
D03*
X812008D02*
D03*
X841535D02*
D03*
X831693D02*
D03*
X1126968Y547244D02*
D03*
X1136811D02*
D03*
X1107283D02*
D03*
X1117126D02*
D03*
X1018701D02*
D03*
X1008858D02*
D03*
X1038386D02*
D03*
X1028543D02*
D03*
X930118D02*
D03*
X939961D02*
D03*
X910433D02*
D03*
X920276D02*
D03*
X821850D02*
D03*
X812008D02*
D03*
X841535D02*
D03*
X831693D02*
D03*
X1112362Y363425D02*
D03*
X1102362D02*
D03*
X1092362D02*
D03*
X1112362Y333425D02*
D03*
X1102362D02*
D03*
X1092362D02*
D03*
X174488Y354803D02*
D03*
X164488D02*
D03*
X154488D02*
D03*
X144488D02*
D03*
X134488D02*
D03*
X124488D02*
D03*
X114488D02*
D03*
X104488D02*
D03*
X94488D02*
D03*
X84488D02*
D03*
X74488D02*
D03*
X64488D02*
D03*
X54488D02*
D03*
X44488D02*
D03*
X34488D02*
D03*
X24488D02*
D03*
X14488D02*
D03*
Y294803D02*
D03*
X24488D02*
D03*
X34488D02*
D03*
X44488D02*
D03*
X54488D02*
D03*
X64488D02*
D03*
X74488D02*
D03*
X84488D02*
D03*
X94488D02*
D03*
X104488D02*
D03*
X114488D02*
D03*
X124488D02*
D03*
X134488D02*
D03*
X144488D02*
D03*
X154488D02*
D03*
X164488D02*
D03*
X174488D02*
D03*
X464567Y639764D02*
D03*
X474567D02*
D03*
X484567D02*
D03*
X494567D02*
D03*
X504567D02*
D03*
X514567D02*
D03*
X524567D02*
D03*
X534567D02*
D03*
X544567D02*
D03*
X554567D02*
D03*
X564567D02*
D03*
X574567D02*
D03*
X584567D02*
D03*
X594567D02*
D03*
X604567D02*
D03*
X614567D02*
D03*
X931055Y419803D02*
D03*
X941055D02*
D03*
X951055D02*
D03*
X961055D02*
D03*
X971055D02*
D03*
X981055D02*
D03*
X1107055Y229803D02*
D03*
X1097055D02*
D03*
X1087055D02*
D03*
X1077055D02*
D03*
X1067055D02*
D03*
X1057055D02*
D03*
X1047055D02*
D03*
X1037055D02*
D03*
X1027055D02*
D03*
X1017055D02*
D03*
X951055D02*
D03*
X941055D02*
D03*
X1001055D02*
D03*
X991055D02*
D03*
X981055D02*
D03*
X971055D02*
D03*
X961055D02*
D03*
X931055D02*
D03*
X1021055Y419803D02*
D03*
X1011055D02*
D03*
X1071055D02*
D03*
X1061055D02*
D03*
X1051055D02*
D03*
X1041055D02*
D03*
X1031055D02*
D03*
X1001055D02*
D03*
X920504Y330000D02*
D03*
X930504D02*
D03*
X920504Y320000D02*
D03*
X930504D02*
D03*
X920504Y310000D02*
D03*
X930504D02*
D03*
X1001055Y261536D02*
D03*
Y271535D02*
D03*
X971055D02*
D03*
X961055D02*
D03*
X951055D02*
D03*
X971055Y261536D02*
D03*
X961055D02*
D03*
X951055D02*
D03*
X981055Y271535D02*
D03*
X991055D02*
D03*
X981055Y261536D02*
D03*
X991055D02*
D03*
X941055Y271535D02*
D03*
X931055D02*
D03*
X941055Y261536D02*
D03*
X931055D02*
D03*
Y378071D02*
D03*
X941055D02*
D03*
X931055Y388071D02*
D03*
X941055D02*
D03*
X981055Y378071D02*
D03*
Y388071D02*
D03*
X951055Y378071D02*
D03*
X961055D02*
D03*
X971055D02*
D03*
X951055Y388071D02*
D03*
X961055D02*
D03*
X971055D02*
D03*
X1057055Y271535D02*
D03*
X1047055D02*
D03*
X1037055D02*
D03*
X1057055Y261536D02*
D03*
X1047055D02*
D03*
X1037055D02*
D03*
X1067055Y271535D02*
D03*
Y261536D02*
D03*
X1027055Y271535D02*
D03*
X1017055D02*
D03*
X1027055Y261536D02*
D03*
X1017055D02*
D03*
D76*
X874016Y121063D02*
D03*
X893701D02*
D03*
Y170276D02*
D03*
X874016D02*
D03*
X1015748D02*
D03*
X1035433D02*
D03*
Y121063D02*
D03*
X1015748D02*
D03*
X944882D02*
D03*
X964567D02*
D03*
Y170276D02*
D03*
X944882D02*
D03*
X673228D02*
D03*
X692913D02*
D03*
Y121063D02*
D03*
X673228D02*
D03*
X748032D02*
D03*
X767717D02*
D03*
Y170276D02*
D03*
X748032D02*
D03*
X405512D02*
D03*
X425197D02*
D03*
Y121063D02*
D03*
X405512D02*
D03*
X476378D02*
D03*
X496063D02*
D03*
Y170276D02*
D03*
X476378D02*
D03*
X547244D02*
D03*
X566929D02*
D03*
Y121063D02*
D03*
X547244D02*
D03*
X204725D02*
D03*
X224410D02*
D03*
Y170276D02*
D03*
X204725D02*
D03*
X279527D02*
D03*
X299213D02*
D03*
Y121063D02*
D03*
X279527D02*
D03*
X246063Y459646D02*
D03*
X265748D02*
D03*
Y508858D02*
D03*
X246063D02*
D03*
X147638D02*
D03*
X167323D02*
D03*
Y459646D02*
D03*
X147638D02*
D03*
X49213D02*
D03*
X68898D02*
D03*
Y508858D02*
D03*
X49213D02*
D03*
X246063Y615158D02*
D03*
X265748D02*
D03*
Y565945D02*
D03*
X246063D02*
D03*
X147638D02*
D03*
X167323D02*
D03*
Y615158D02*
D03*
X147638D02*
D03*
X49213D02*
D03*
X68898D02*
D03*
Y565945D02*
D03*
X49213D02*
D03*
X344488Y459646D02*
D03*
X364173D02*
D03*
Y508858D02*
D03*
X344488D02*
D03*
Y615158D02*
D03*
X364173D02*
D03*
Y565945D02*
D03*
X344488D02*
D03*
X738189Y392717D02*
D03*
X757874D02*
D03*
Y441929D02*
D03*
X738189D02*
D03*
X659449D02*
D03*
X679134D02*
D03*
Y392717D02*
D03*
X659449D02*
D03*
X501968D02*
D03*
X521654D02*
D03*
Y441929D02*
D03*
X501968D02*
D03*
X423228D02*
D03*
X442913D02*
D03*
Y392717D02*
D03*
X423228D02*
D03*
X1045276Y14764D02*
D03*
X1064961D02*
D03*
Y63977D02*
D03*
X1045276D02*
D03*
X978347D02*
D03*
X998032D02*
D03*
Y14764D02*
D03*
X978347D02*
D03*
X911417D02*
D03*
X931102D02*
D03*
Y63977D02*
D03*
X911417D02*
D03*
X844488D02*
D03*
X864173D02*
D03*
Y14764D02*
D03*
X844488D02*
D03*
X777559D02*
D03*
X797244D02*
D03*
Y63977D02*
D03*
X777559D02*
D03*
X710630D02*
D03*
X730315D02*
D03*
Y14764D02*
D03*
X710630D02*
D03*
X643701D02*
D03*
X663386D02*
D03*
Y63977D02*
D03*
X643701D02*
D03*
X576772D02*
D03*
X596457D02*
D03*
Y14764D02*
D03*
X576772D02*
D03*
X509842D02*
D03*
X529528D02*
D03*
Y63977D02*
D03*
X509842D02*
D03*
X442913D02*
D03*
X462599D02*
D03*
Y14764D02*
D03*
X442913D02*
D03*
X375984D02*
D03*
X395669D02*
D03*
Y63977D02*
D03*
X375984D02*
D03*
X309055D02*
D03*
X328740D02*
D03*
Y14764D02*
D03*
X309055D02*
D03*
X242126D02*
D03*
X261811D02*
D03*
Y63977D02*
D03*
X242126D02*
D03*
X175197D02*
D03*
X194882D02*
D03*
Y14764D02*
D03*
X175197D02*
D03*
X1112205D02*
D03*
X1131890D02*
D03*
Y63977D02*
D03*
X1112205D02*
D03*
D77*
X57874Y103347D02*
D03*
Y54134D02*
D03*
X99606D02*
D03*
Y103347D02*
D03*
D78*
X1100394Y484252D02*
D03*
X1143701D02*
D03*
X1045276D02*
D03*
X1001968D02*
D03*
X903543D02*
D03*
X946850D02*
D03*
X848425D02*
D03*
X805118D02*
D03*
X1100394Y590551D02*
D03*
X1143701D02*
D03*
X1045276D02*
D03*
X1001968D02*
D03*
X903543D02*
D03*
X946850D02*
D03*
X848425D02*
D03*
X805118D02*
D03*
D79*
X953843Y338845D02*
D03*
X944743Y324745D02*
D03*
X192443Y296245D02*
D03*
X1008343Y294245D02*
D03*
X1011343Y391345D02*
D03*
X9343Y221345D02*
D03*
X181243Y364045D02*
D03*
X63730D02*
D03*
X648343Y274845D02*
D03*
X664043Y290545D02*
D03*
X753549D02*
D03*
X342143Y273745D02*
D03*
X879643Y318145D02*
D03*
X895743Y408245D02*
D03*
X975643Y288645D02*
D03*
X935713Y297945D02*
D03*
X74743Y319445D02*
D03*
X911822Y344683D02*
D03*
X98343Y346545D02*
D03*
X918849Y349998D02*
D03*
X355344Y374045D02*
D03*
X903443Y318339D02*
D03*
X207343Y301745D02*
D03*
X875543Y267445D02*
D03*
X186143Y286745D02*
D03*
X486243Y110545D02*
D03*
X561405Y265197D02*
D03*
X739843Y160645D02*
D03*
X724443Y178845D02*
D03*
X733643Y161645D02*
D03*
X751290Y405945D02*
D03*
X672453Y495445D02*
D03*
X739443Y379445D02*
D03*
X860443Y363345D02*
D03*
X589343D02*
D03*
X998743Y432407D02*
D03*
X637843Y428745D02*
D03*
X618843Y408945D02*
D03*
X277643Y622145D02*
D03*
X166443Y388543D02*
D03*
X184743Y391545D02*
D03*
X530943Y236845D02*
D03*
Y315545D02*
D03*
X927543Y343945D02*
D03*
X922943Y341945D02*
D03*
X622543Y330645D02*
D03*
X457343Y360945D02*
D03*
X928743D02*
D03*
X734843Y327845D02*
D03*
X1012443Y404645D02*
D03*
X514543Y475045D02*
D03*
X604743Y487945D02*
D03*
X1076443Y453245D02*
D03*
X1061843Y456945D02*
D03*
X636143Y472445D02*
D03*
X604543Y465945D02*
D03*
X600843Y613545D02*
D03*
X1018081Y535107D02*
D03*
X997843Y298345D02*
D03*
X544243Y397845D02*
D03*
Y312545D02*
D03*
X34488Y201745D02*
D03*
X164443Y330145D02*
D03*
X849343Y336145D02*
D03*
X255943Y252045D02*
D03*
X264243Y255345D02*
D03*
X126683Y366998D02*
D03*
X915543Y369045D02*
D03*
X832743Y258945D02*
D03*
X190347D02*
D03*
X433043Y458545D02*
D03*
X464343Y458145D02*
D03*
X424343Y283045D02*
D03*
X371743Y279745D02*
D03*
X1093873Y247416D02*
D03*
X989202Y517745D02*
D03*
X588443Y475845D02*
D03*
X692643Y388945D02*
D03*
X702165Y154145D02*
D03*
X118343Y333045D02*
D03*
X924243Y350345D02*
D03*
X343643Y375045D02*
D03*
X666343Y274845D02*
D03*
X697443Y183145D02*
D03*
X703743Y186345D02*
D03*
X495174Y278245D02*
D03*
X128243Y300145D02*
D03*
X762543Y290545D02*
D03*
X991055Y291645D02*
D03*
X534843Y234445D02*
D03*
X740691Y318798D02*
D03*
X71143Y310845D02*
D03*
X244443Y382045D02*
D03*
X965143Y277045D02*
D03*
X845643Y343245D02*
D03*
X721943Y352245D02*
D03*
Y307445D02*
D03*
M02*
